<svg width="27" height="27" viewBox="0 0 27 27" fill="none" xmlns="http://www.w3.org/2000/svg">
<path fill-rule="evenodd" clip-rule="evenodd" d="M10.5 2C5.80558 2 2 5.80558 2 10.5C2 15.1944 5.80558 19 10.5 19C15.1944 19 19 15.1944 19 10.5C19 5.80558 15.1944 2 10.5 2ZM0 10.5C0 4.70101 4.70101 0 10.5 0C16.299 0 21 4.70101 21 10.5C21 13.0436 20.0956 15.3759 18.5907 17.193C18.6314 17.2228 18.6703 17.2561 18.7071 17.2929L26.7071 25.2929C27.0976 25.6834 27.0976 26.3166 26.7071 26.7071C26.3166 27.0976 25.6834 27.0976 25.2929 26.7071L17.2929 18.7071C17.2561 18.6703 17.2228 18.6314 17.193 18.5907C15.3759 20.0956 13.0436 21 10.5 21C4.70101 21 0 16.299 0 10.5Z" fill="#828D97"/>
</svg>
